HIERARCHY
ROOT SimulationBone
{
	OFFSET 0.000000 0.000000 0.000000
	CHANNELS 6 Xposition Yposition Zposition Zrotation Yrotation Xrotation 
	JOINT Hips
	{
		OFFSET 0.000000 0.000000 0.000000
		CHANNELS 6 Xposition Yposition Zposition Zrotation Yrotation Xrotation 
		JOINT RightUpLeg
		{
			OFFSET 0.103458 1.857831 10.548505
			CHANNELS 3 Zrotation Yrotation Xrotation
			JOINT RightLeg
			{
				OFFSET 43.500000 -0.000031 0.000002
				CHANNELS 3 Zrotation Yrotation Xrotation
				JOINT RightFoot
				{
					OFFSET 42.372200 0.000023 0.000003
					CHANNELS 3 Zrotation Yrotation Xrotation
					JOINT RightToe
					{
						OFFSET 17.299997 -0.000001 -0.000010
						CHANNELS 3 Zrotation Yrotation Xrotation
						End Site
						{
							OFFSET 0.000000 0.000000 0.000000
						}
					}
				}
			}
		}
		JOINT LeftUpLeg
		{
			OFFSET 0.103457 1.857828 -10.548510
			CHANNELS 3 Zrotation Yrotation Xrotation
			JOINT LeftLeg
			{
				OFFSET 43.500046 -0.000015 0.000002
				CHANNELS 3 Zrotation Yrotation Xrotation
				JOINT LeftFoot
				{
					OFFSET 42.372261 -0.000008 0.000023
					CHANNELS 3 Zrotation Yrotation Xrotation
					JOINT LeftToe
					{
						OFFSET 17.299990 -0.000007 -0.000002
						CHANNELS 3 Zrotation Yrotation Xrotation
						End Site
						{
							OFFSET 0.000000 0.000000 0.000000
						}
					}
				}
			}
		}
		JOINT Spine
		{
			OFFSET 6.901967 -2.603726 -0.000001
			CHANNELS 3 Zrotation Yrotation Xrotation
			JOINT Spine1
			{
				OFFSET 12.588100 -0.000009 -0.000003
				CHANNELS 3 Zrotation Yrotation Xrotation
				JOINT Spine2
				{
					OFFSET 12.343202 0.000008 0.000008
					CHANNELS 3 Zrotation Yrotation Xrotation
					JOINT Neck
					{
						OFFSET 25.832897 -0.000015 -0.000004
						CHANNELS 3 Zrotation Yrotation Xrotation
						JOINT Head
						{
							OFFSET 11.766609 0.000013 -0.000006
							CHANNELS 3 Zrotation Yrotation Xrotation
							End Site
							{
								OFFSET 0.000000 0.000000 0.000000
							}
						}
					}
					JOINT RightShoulder
					{
						OFFSET 19.745911 -1.480373 6.000098
						CHANNELS 3 Zrotation Yrotation Xrotation
						JOINT RightArm
						{
							OFFSET 11.284123 -0.000007 -0.000032
							CHANNELS 3 Zrotation Yrotation Xrotation
							JOINT RightForeArm
							{
								OFFSET 33.000050 0.000005 0.000031
								CHANNELS 3 Zrotation Yrotation Xrotation
								JOINT RightHand
								{
									OFFSET 25.200008 0.000017 0.000013
									CHANNELS 3 Zrotation Yrotation Xrotation
									End Site
									{
										OFFSET 0.000000 0.000000 0.000000
									}
								}
							}
						}
					}
					JOINT LeftShoulder
					{
						OFFSET 19.746092 -1.480379 -6.000077
						CHANNELS 3 Zrotation Yrotation Xrotation
						JOINT LeftArm
						{
							OFFSET 11.284136 -0.000017 -0.000017
							CHANNELS 3 Zrotation Yrotation Xrotation
							JOINT LeftForeArm
							{
								OFFSET 33.000099 0.000019 0.000015
								CHANNELS 3 Zrotation Yrotation Xrotation
								JOINT LeftHand
								{
									OFFSET 25.199780 0.000140 0.000408
									CHANNELS 3 Zrotation Yrotation Xrotation
									End Site
									{
										OFFSET 0.000000 0.000000 0.000000
									}
								}
							}
						}
					}
				}
			}
		}
	}
}
MOTION
Frames: 6
Frame Time: 0.016667
304.758077 0.000000 233.493227 0.000000 25.201828 0.000000 -0.234572 89.901939 1.067479 93.539243 3.226893 178.403399 154.827847 -7.174759 172.352136 -20.461429 -2.009060 -11.829547 65.775110 7.377390 -3.820085 21.454560 0.003109 0.000016 -173.961285 -4.139064 -178.171992 -17.562817 4.220975 1.356592 83.843057 -1.784125 -3.465234 21.454547 -0.003089 0.000001 8.015095 0.910215 0.780874 6.030560 1.778728 1.608092 5.712422 1.788267 1.597319 14.378398 -0.313473 3.655151 -5.650063 -6.356427 5.417277 -167.929827 -71.302507 -13.796647 2.641943 62.580088 42.285208 -27.465613 -15.603121 1.247731 7.508370 5.281571 14.729114 176.930132 77.326227 -1.613700 -68.919829 -53.072971 -2.933326 -49.574562 17.310735 -1.899813 3.858935 4.673366 -26.048567 
306.309003 0.000000 232.307806 0.000000 25.554914 0.000000 -0.133437 89.596313 1.130309 93.677243 3.420927 179.006293 155.695378 -6.611204 171.834869 -14.645018 -2.448174 -12.306141 65.537372 7.316587 -4.925874 21.454560 0.003109 0.000016 -172.413523 -4.298096 -178.129121 -17.505833 4.065034 1.718773 84.754983 -1.883656 -2.875704 21.454545 -0.003088 0.000001 7.993846 0.974158 0.735819 5.988366 1.909156 1.521037 5.670184 1.918163 1.509479 14.522937 -0.060985 3.504852 -5.379011 -6.489711 5.290515 -168.194309 -71.268923 -13.524420 3.358381 62.726058 43.240891 -27.410810 -15.674763 1.250955 7.395492 5.933882 14.883530 177.082135 77.287622 -1.459572 -69.177356 -52.421271 -1.390929 -52.657626 16.841469 -1.961252 2.349145 4.782315 -29.532320 
307.855591 0.000000 231.142131 0.000000 26.003302 0.000000 0.046537 89.141840 1.191778 93.866325 3.831944 179.592533 155.646655 -6.147218 170.518760 -11.883903 -2.529758 -12.801671 66.378669 7.544205 -5.329185 21.454558 0.003115 0.000017 -171.137468 -4.742913 -177.877125 -18.219441 3.787634 1.994160 85.787695 -1.916020 -2.215996 21.454551 -0.003093 0.000001 7.971394 1.083093 0.706155 5.944630 2.128701 1.467006 5.626387 2.137375 1.454125 14.701130 0.063665 3.415232 -5.158907 -6.369619 5.159616 -168.294386 -71.120704 -13.421612 3.985569 62.701693 44.061907 -27.732893 -15.855652 1.267680 7.638962 6.679307 15.277341 177.485672 77.323318 -1.047459 -68.747029 -51.950077 -0.537821 -56.117213 16.555600 -2.055643 1.492546 4.298142 -32.520192 
309.393949 0.000000 229.994230 0.000000 26.549247 0.000000 0.252401 88.649902 1.245412 94.097647 4.243316 -179.844324 155.255227 -5.562304 168.342539 -11.105163 -2.306289 -12.921977 67.541001 7.735043 -5.103939 21.454557 0.003120 0.000017 -170.028721 -5.255097 -177.683628 -19.350278 3.510164 2.357224 86.651549 -2.001849 -1.452330 21.454558 -0.003097 -0.000000 7.952685 1.187124 0.680903 5.908297 2.338150 1.421535 5.589998 2.346547 1.407387 14.854763 0.195050 3.369320 -4.923157 -6.204835 5.062230 -168.172903 -70.984726 -13.546945 4.415233 62.666977 44.605337 -28.166629 -16.035578 1.287525 7.892594 7.244473 15.702062 178.300913 77.398660 -0.214908 -67.932370 -51.661378 0.050906 -59.551046 16.251750 -2.166972 0.695072 3.703147 -34.955872 
310.923353 0.000000 228.862848 0.000000 27.196988 0.000000 0.426939 88.234037 1.280395 94.355406 4.442798 -179.309718 155.161608 -4.669437 165.473112 -10.986266 -1.920684 -12.300463 68.129765 7.510260 -4.445742 21.454557 0.003115 0.000016 -168.981372 -5.608556 -177.694377 -20.539792 3.314460 2.905538 87.037085 -2.207017 -0.553526 21.454556 -0.003095 -0.000000 7.940913 1.236622 0.646622 5.884764 2.438964 1.355303 5.566441 2.446963 1.340539 14.946037 0.484991 3.347221 -4.611835 -6.230707 5.038792 -167.809111 -70.977178 -13.921669 4.569605 62.758429 44.777534 -28.446932 -16.119743 1.298367 7.817824 7.406617 15.890877 179.553457 77.439052 1.062656 -66.999469 -51.540338 0.898589 -62.536523 15.669514 -2.243355 -0.657234 3.444770 -36.838656 
312.443095 0.000000 227.746132 0.000000 27.951078 0.000000 0.605091 87.867401 1.297551 94.632952 4.494776 -178.823806 155.268013 -3.687902 162.516824 -11.604756 -1.470775 -11.035270 67.918908 7.057391 -3.042875 21.454558 0.003105 0.000015 -168.057078 -5.796098 -177.398550 -21.962243 3.088494 3.287273 86.921840 -2.283924 0.488648 21.454550 -0.003091 -0.000000 7.926939 1.237235 0.603593 5.855897 2.442533 1.269013 5.537570 2.450014 1.254223 15.037259 0.977881 3.383954 -4.271193 -6.451971 5.129923 -167.314171 -71.052269 -14.431246 4.597521 62.860162 44.782809 -28.684526 -16.166516 1.305427 7.652225 7.103881 15.723247 -179.218713 77.311576 2.312285 -65.702538 -51.531751 1.666005 -65.128155 14.906651 -2.288742 -1.919341 3.311785 -37.654251 
